# xmcd
#
# Track frame offsets:
#	150
#	17636
#	30772
#	46562
#	60110
#	71509
#	85583
#	97693
#	119216
#	131289
#	145631
#	161548
#	181051
#	201169
#	217213
#	233200
#	248817
#	269605
#	284951
#	300301
#
# Disc length: 4212 seconds
#
# Revision: 0
# Processed by: cddbd v1.5.2PL0 Copyright (c) Steve Scherf et al.
# Submitted via: EasyCDDAExtractor 2010.6.0.0
#
DISCID=09107214
DTITLE=Various Artist - 100 Country Hits
DYEAR=1900
DGENRE=country
TTITLE0=Dr. Hook - Silvia's Mother
TTITLE1=Lynn Anderson - Rose Garden
TTITLE2=Willie Nelson - Mama's Dont Let Your Babies Grow Up To Be Cowboys
TTITLE3=Tanya Tucker - Delta Dawn
TTITLE4=Roy Orbison - Only The Lonely
TTITLE5=Lester Flatt and Earl Scruggs - Duelling Banjos
TTITLE6=Johnny Cash - Ring Of Fire
TTITLE7=Ray Price - Night Life
TTITLE8=Tammy Wynette - I Don't Want To Play House
TTITLE9=George Jones - The Grand Tour
TTITLE10=Byrds - Goin' Back
TTITLE11=Kris Kristofferson - Me and Bobby McGee
TTITLE12=John Denver - Rocky Mountain
TTITLE13=Dolly Parton - Slow Dancing With The Moon
TTITLE14=Collin Raye - What They Don't Know
TTITLE15=Waylon Jennings - What Bothers Me Most
TTITLE16=Joe Diffie - Johne Deere Green
TTITLE17=Stacy Dean Campbell - Lonesome Wins Again
TTITLE18=Rosanne Cash - On The Inside
TTITLE19=Rodney Crowell - If Looks Could Kill
EXTD=
EXTT0=
EXTT1=
EXTT2=
EXTT3=
EXTT4=
EXTT5=
EXTT6=
EXTT7=
EXTT8=
EXTT9=
EXTT10=
EXTT11=
EXTT12=
EXTT13=
EXTT14=
EXTT15=
EXTT16=
EXTT17=
EXTT18=
EXTT19=
PLAYORDER=
